<?xml version="1.0" encoding="utf-8"?>
<!-- Generator: Adobe Illustrator 22.0.1, SVG Export Plug-In . SVG Version: 6.00 Build 0)  -->
<svg version="1.1" id="Publicdomainvectors.org" xmlns="http://www.w3.org/2000/svg" xmlns:xlink="http://www.w3.org/1999/xlink"
	 x="0px" y="0px" viewBox="0 0 841.9 595.3" style="enable-background:new 0 0 841.9 595.3;" xml:space="preserve">
<style type="text/css">
	.st0{fill:url(#SVGID_1_);}
	.st1{fill:url(#SVGID_2_);}
	.st2{fill:url(#SVGID_3_);}
	.st3{fill:url(#SVGID_4_);}
	.st4{fill:url(#SVGID_5_);}
	.st5{fill:url(#SVGID_6_);}
	.st6{fill:url(#SVGID_7_);}
	.st7{fill:url(#SVGID_8_);}
	.st8{fill:url(#SVGID_9_);}
	.st9{fill:url(#SVGID_10_);}
	.st10{fill:url(#SVGID_11_);}
	.st11{fill:url(#SVGID_12_);}
	.st12{fill:url(#SVGID_13_);}
	.st13{fill:url(#SVGID_14_);}
	.st14{fill:url(#SVGID_15_);}
	.st15{fill:url(#SVGID_16_);}
	.st16{fill:url(#SVGID_17_);}
	.st17{fill:url(#SVGID_18_);}
	.st18{fill:url(#SVGID_19_);}
	.st19{fill:url(#SVGID_20_);}
	.st20{fill:url(#SVGID_21_);}
</style>
<g>
	<g>
		
			<linearGradient id="SVGID_1_" gradientUnits="userSpaceOnUse" x1="-5088.9336" y1="-906.6768" x2="26316.873" y2="-906.6768" gradientTransform="matrix(4.350000e-02 6.300000e-02 -0.6598 0.2508 -909.0212 64.7575)">
			<stop  offset="1.685390e-02" style="stop-color:#ED1C24"/>
			<stop  offset="3.785143e-02" style="stop-color:#EF4423"/>
			<stop  offset="6.921472e-02" style="stop-color:#F26522"/>
			<stop  offset="0.1009" style="stop-color:#F47B20"/>
			<stop  offset="0.1327" style="stop-color:#F6891F"/>
			<stop  offset="0.1645" style="stop-color:#F7911E"/>
			<stop  offset="0.1966" style="stop-color:#F7941D"/>
			<stop  offset="0.3708" style="stop-color:#FFC20E"/>
			<stop  offset="0.4009" style="stop-color:#F1C219"/>
			<stop  offset="0.4589" style="stop-color:#D2C52A"/>
			<stop  offset="0.5381" style="stop-color:#98C53D"/>
			<stop  offset="0.5506" style="stop-color:#8DC63F"/>
			<stop  offset="0.7528" style="stop-color:#00AEEF"/>
			<stop  offset="0.8592" style="stop-color:#0090D6"/>
			<stop  offset="0.9533" style="stop-color:#007AC3"/>
			<stop  offset="1" style="stop-color:#0072BC"/>
		</linearGradient>
		<path class="st0" d="M0.2,326c47.4,22.3,86.8,51.1,116,83.2c53.9,59.2,69.4,131.9,57.8,187.7h2.2c13.4-59.7-5.7-140.4-69-203.4
			C79,365.3,42.8,340.1,0.2,320V326z"/>
	</g>
	<g>
		
			<linearGradient id="SVGID_2_" gradientUnits="userSpaceOnUse" x1="-3285.3472" y1="-969.8994" x2="28774.1543" y2="-969.8994" gradientTransform="matrix(3.510000e-02 6.320000e-02 -0.6666 0.1891 -879.5857 -74.8209)">
			<stop  offset="1.685390e-02" style="stop-color:#ED1C24"/>
			<stop  offset="3.785143e-02" style="stop-color:#EF4423"/>
			<stop  offset="6.921472e-02" style="stop-color:#F26522"/>
			<stop  offset="0.1009" style="stop-color:#F47B20"/>
			<stop  offset="0.1327" style="stop-color:#F6891F"/>
			<stop  offset="0.1645" style="stop-color:#F7911E"/>
			<stop  offset="0.1966" style="stop-color:#F7941D"/>
			<stop  offset="0.3708" style="stop-color:#FFC20E"/>
			<stop  offset="0.4009" style="stop-color:#F1C219"/>
			<stop  offset="0.4589" style="stop-color:#D2C52A"/>
			<stop  offset="0.5381" style="stop-color:#98C53D"/>
			<stop  offset="0.5506" style="stop-color:#8DC63F"/>
			<stop  offset="0.7528" style="stop-color:#00AEEF"/>
			<stop  offset="0.8592" style="stop-color:#0090D6"/>
			<stop  offset="0.9533" style="stop-color:#007AC3"/>
			<stop  offset="1" style="stop-color:#0072BC"/>
		</linearGradient>
		<path class="st1" d="M0.2,273.3c60.2,21.6,111.6,51.9,150.6,87.7c79.2,72.9,103.3,169.2,86.2,235.8h1.9c1-3.5,1.8-7.1,2.6-10.7
			c14.5-69.6-15.6-168.3-101.3-240.8C102.6,313.5,55,286.7,0.2,267V273.3z"/>
	</g>
	<g>
		
			<linearGradient id="SVGID_3_" gradientUnits="userSpaceOnUse" x1="-1173.1411" y1="-1037.6996" x2="31165.2832" y2="-1037.6996" gradientTransform="matrix(2.700000e-02 6.240000e-02 -0.6679 0.1284 -841.2045 -206.1361)">
			<stop  offset="1.685390e-02" style="stop-color:#ED1C24"/>
			<stop  offset="3.785143e-02" style="stop-color:#EF4423"/>
			<stop  offset="6.921472e-02" style="stop-color:#F26522"/>
			<stop  offset="0.1009" style="stop-color:#F47B20"/>
			<stop  offset="0.1327" style="stop-color:#F6891F"/>
			<stop  offset="0.1645" style="stop-color:#F7911E"/>
			<stop  offset="0.1966" style="stop-color:#F7941D"/>
			<stop  offset="0.3708" style="stop-color:#FFC20E"/>
			<stop  offset="0.4009" style="stop-color:#F1C219"/>
			<stop  offset="0.4589" style="stop-color:#D2C52A"/>
			<stop  offset="0.5381" style="stop-color:#98C53D"/>
			<stop  offset="0.5506" style="stop-color:#8DC63F"/>
			<stop  offset="0.7528" style="stop-color:#00AEEF"/>
			<stop  offset="0.8592" style="stop-color:#0090D6"/>
			<stop  offset="0.9533" style="stop-color:#007AC3"/>
			<stop  offset="1" style="stop-color:#0072BC"/>
		</linearGradient>
		<path class="st2" d="M0.2,229.7c69.3,19,130.3,48.6,178.3,85.3c96.1,73.5,137.3,175.7,131.8,253.1c-0.7,10-2.1,19.6-4,28.8h2
			c3-13.2,4.8-27.2,5.1-41.9c2-80-45.4-183.3-147.5-255.6c-46-32.5-102.4-58.7-165.7-76.1V229.7z"/>
	</g>
	<g>
		
			<linearGradient id="SVGID_4_" gradientUnits="userSpaceOnUse" x1="1240.0767" y1="-1115.9489" x2="33362.5586" y2="-1115.9489" gradientTransform="matrix(1.940000e-02 6.080000e-02 -0.6637 6.910000e-02 -792.4174 -328.3286)">
			<stop  offset="1.685390e-02" style="stop-color:#ED1C24"/>
			<stop  offset="3.785143e-02" style="stop-color:#EF4423"/>
			<stop  offset="6.921472e-02" style="stop-color:#F26522"/>
			<stop  offset="0.1009" style="stop-color:#F47B20"/>
			<stop  offset="0.1327" style="stop-color:#F6891F"/>
			<stop  offset="0.1645" style="stop-color:#F7911E"/>
			<stop  offset="0.1966" style="stop-color:#F7941D"/>
			<stop  offset="0.3708" style="stop-color:#FFC20E"/>
			<stop  offset="0.4009" style="stop-color:#F1C219"/>
			<stop  offset="0.4589" style="stop-color:#D2C52A"/>
			<stop  offset="0.5381" style="stop-color:#98C53D"/>
			<stop  offset="0.5506" style="stop-color:#8DC63F"/>
			<stop  offset="0.7528" style="stop-color:#00AEEF"/>
			<stop  offset="0.8592" style="stop-color:#0090D6"/>
			<stop  offset="0.9533" style="stop-color:#007AC3"/>
			<stop  offset="1" style="stop-color:#0072BC"/>
		</linearGradient>
		<path class="st3" d="M0.2,195.8c73.3,15,139.7,41,194.6,75.1c114.3,71.3,175.3,177.8,184.3,265.9c2.1,21,1.7,41.1-0.8,60h2
			c3.3-23.3,3.6-48.3-0.1-74.5c-12.9-90.4-80.2-197.5-200.5-266.8c-51.8-29.8-112.8-52.6-179.5-66.4V195.8z"/>
	</g>
	<g>
		
			<linearGradient id="SVGID_5_" gradientUnits="userSpaceOnUse" x1="3948.2097" y1="-1205.1569" x2="35486.9375" y2="-1205.1569" gradientTransform="matrix(1.240000e-02 5.820000e-02 -0.6545 1.190000e-02 -736.1059 -441.2138)">
			<stop  offset="1.685390e-02" style="stop-color:#ED1C24"/>
			<stop  offset="3.785143e-02" style="stop-color:#EF4423"/>
			<stop  offset="6.921472e-02" style="stop-color:#F26522"/>
			<stop  offset="0.1009" style="stop-color:#F47B20"/>
			<stop  offset="0.1327" style="stop-color:#F6891F"/>
			<stop  offset="0.1645" style="stop-color:#F7911E"/>
			<stop  offset="0.1966" style="stop-color:#F7941D"/>
			<stop  offset="0.3708" style="stop-color:#FFC20E"/>
			<stop  offset="0.4009" style="stop-color:#F1C219"/>
			<stop  offset="0.4589" style="stop-color:#D2C52A"/>
			<stop  offset="0.5381" style="stop-color:#98C53D"/>
			<stop  offset="0.5506" style="stop-color:#8DC63F"/>
			<stop  offset="0.7528" style="stop-color:#00AEEF"/>
			<stop  offset="0.8592" style="stop-color:#0090D6"/>
			<stop  offset="0.9533" style="stop-color:#007AC3"/>
			<stop  offset="1" style="stop-color:#0072BC"/>
		</linearGradient>
		<path class="st4" d="M0.2,171.6c71,10.1,137.2,30,194.9,58c133.8,65.2,217.6,173.4,244,271.4c8.9,33.3,11.9,65.6,10.6,95.8h2.1
			c1.9-35-1.9-72.8-13.9-111.7C407,385.4,316.7,277.3,176.9,214.7c-53.2-23.7-113-40.8-176.6-50V171.6z"/>
	</g>
	<g>
		
			<linearGradient id="SVGID_6_" gradientUnits="userSpaceOnUse" x1="6924.6831" y1="-1307.6901" x2="37378.4414" y2="-1307.6901" gradientTransform="matrix(6.100000e-03 5.490000e-02 -0.6406 -4.300000e-02 -673.184 -544.5745)">
			<stop  offset="1.685390e-02" style="stop-color:#ED1C24"/>
			<stop  offset="3.785143e-02" style="stop-color:#EF4423"/>
			<stop  offset="6.921472e-02" style="stop-color:#F26522"/>
			<stop  offset="0.1009" style="stop-color:#F47B20"/>
			<stop  offset="0.1327" style="stop-color:#F6891F"/>
			<stop  offset="0.1645" style="stop-color:#F7911E"/>
			<stop  offset="0.1966" style="stop-color:#F7941D"/>
			<stop  offset="0.3708" style="stop-color:#FFC20E"/>
			<stop  offset="0.4009" style="stop-color:#F1C219"/>
			<stop  offset="0.4589" style="stop-color:#D2C52A"/>
			<stop  offset="0.5381" style="stop-color:#98C53D"/>
			<stop  offset="0.5506" style="stop-color:#8DC63F"/>
			<stop  offset="0.7528" style="stop-color:#00AEEF"/>
			<stop  offset="0.8592" style="stop-color:#0090D6"/>
			<stop  offset="0.9533" style="stop-color:#007AC3"/>
			<stop  offset="1" style="stop-color:#0072BC"/>
		</linearGradient>
		<path class="st5" d="M0.2,157.3c61.2,5.1,120,17.3,173.9,36c153.7,53.5,263.4,159,310.9,264.4c21.3,47.3,31,94.8,32.7,139.1h2.1
			c-1.5-49.6-13-103.4-39.2-156.6c-52.8-106.6-169.3-211.1-329-260.8c-47.6-14.8-98.6-24.7-151.4-29.2V157.3z"/>
	</g>
	<g>
		
			<linearGradient id="SVGID_7_" gradientUnits="userSpaceOnUse" x1="10125.9551" y1="-1424.8118" x2="39011.0508" y2="-1424.8118" gradientTransform="matrix(6.000000e-04 5.100000e-02 -0.6224 -9.520000e-02 -604.991 -638.0245)">
			<stop  offset="1.685390e-02" style="stop-color:#ED1C24"/>
			<stop  offset="3.785143e-02" style="stop-color:#EF4423"/>
			<stop  offset="6.921472e-02" style="stop-color:#F26522"/>
			<stop  offset="0.1009" style="stop-color:#F47B20"/>
			<stop  offset="0.1327" style="stop-color:#F6891F"/>
			<stop  offset="0.1645" style="stop-color:#F7911E"/>
			<stop  offset="0.1966" style="stop-color:#F7941D"/>
			<stop  offset="0.3708" style="stop-color:#FFC20E"/>
			<stop  offset="0.4009" style="stop-color:#F1C219"/>
			<stop  offset="0.4589" style="stop-color:#D2C52A"/>
			<stop  offset="0.5381" style="stop-color:#98C53D"/>
			<stop  offset="0.5506" style="stop-color:#8DC63F"/>
			<stop  offset="0.7528" style="stop-color:#00AEEF"/>
			<stop  offset="0.8592" style="stop-color:#0090D6"/>
			<stop  offset="0.9533" style="stop-color:#007AC3"/>
			<stop  offset="1" style="stop-color:#0072BC"/>
		</linearGradient>
		<path class="st6" d="M0.2,153.3c42.6,1,84.4,5.4,124.8,13.3c172.5,33.8,311.2,129.3,385,238c42.6,62.8,64.5,129.9,71.8,192.2h2.2
			c-7.6-68.3-32.7-143.1-83-211.8C420.8,276,274.3,183.1,96,154.8c-31.3-4.9-63.3-7.9-95.8-8.8V153.3z"/>
	</g>
	<g>
		
			<linearGradient id="SVGID_8_" gradientUnits="userSpaceOnUse" x1="12040.3164" y1="-1550.4663" x2="40471.5547" y2="-1550.4663" gradientTransform="matrix(-4.100000e-03 4.660000e-02 -0.6001 -0.1443 -531.7178 -721.0151)">
			<stop  offset="1.685390e-02" style="stop-color:#ED1C24"/>
			<stop  offset="3.785143e-02" style="stop-color:#EF4423"/>
			<stop  offset="6.921472e-02" style="stop-color:#F26522"/>
			<stop  offset="0.1009" style="stop-color:#F47B20"/>
			<stop  offset="0.1327" style="stop-color:#F6891F"/>
			<stop  offset="0.1645" style="stop-color:#F7911E"/>
			<stop  offset="0.1966" style="stop-color:#F7941D"/>
			<stop  offset="0.3708" style="stop-color:#FFC20E"/>
			<stop  offset="0.4009" style="stop-color:#F1C219"/>
			<stop  offset="0.4589" style="stop-color:#D2C52A"/>
			<stop  offset="0.5381" style="stop-color:#98C53D"/>
			<stop  offset="0.5506" style="stop-color:#8DC63F"/>
			<stop  offset="0.7528" style="stop-color:#00AEEF"/>
			<stop  offset="0.8592" style="stop-color:#0090D6"/>
			<stop  offset="0.9533" style="stop-color:#007AC3"/>
			<stop  offset="1" style="stop-color:#0072BC"/>
		</linearGradient>
		<path class="st7" d="M0.2,160.7c69.5-2.6,138.4,3.9,203.1,19.4C361.2,218,489.8,308.4,563.2,412.1c42.3,59.8,66.9,124,78.4,184.7
			h2.1c-13.2-72-44.9-149.6-101.8-219c-85.6-104.3-229.5-189.5-398.7-216.1c-46.5-7.3-94.5-10.1-142.9-8.5V160.7z"/>
	</g>
	<g>
		
			<linearGradient id="SVGID_9_" gradientUnits="userSpaceOnUse" x1="12609.5879" y1="-1689.9436" x2="40826.418" y2="-1689.9436" gradientTransform="matrix(-8.000000e-03 4.180000e-02 -0.5743 -0.1901 -456.3921 -794.3608)">
			<stop  offset="1.685390e-02" style="stop-color:#ED1C24"/>
			<stop  offset="3.785143e-02" style="stop-color:#EF4423"/>
			<stop  offset="6.921472e-02" style="stop-color:#F26522"/>
			<stop  offset="0.1009" style="stop-color:#F47B20"/>
			<stop  offset="0.1327" style="stop-color:#F6891F"/>
			<stop  offset="0.1645" style="stop-color:#F7911E"/>
			<stop  offset="0.1966" style="stop-color:#F7941D"/>
			<stop  offset="0.3708" style="stop-color:#FFC20E"/>
			<stop  offset="0.4009" style="stop-color:#F1C219"/>
			<stop  offset="0.4589" style="stop-color:#D2C52A"/>
			<stop  offset="0.5381" style="stop-color:#98C53D"/>
			<stop  offset="0.5506" style="stop-color:#8DC63F"/>
			<stop  offset="0.7528" style="stop-color:#00AEEF"/>
			<stop  offset="0.8592" style="stop-color:#0090D6"/>
			<stop  offset="0.9533" style="stop-color:#007AC3"/>
			<stop  offset="1" style="stop-color:#0072BC"/>
		</linearGradient>
		<path class="st8" d="M0.2,185.4c115-14.1,232.8-3.5,336.6,35.2c131.3,49.1,235.6,136.4,296.9,232c30.3,47.2,50.6,96.4,63,144.2h2
			c-14.3-56.6-39.6-115.7-79.2-171c-68.8-96.1-182.3-181.1-321.2-224.4c-94.1-29.3-197.1-36.2-298.2-23.8L0.2,185.4z"/>
	</g>
	<g>
		
			<linearGradient id="SVGID_10_" gradientUnits="userSpaceOnUse" x1="13764.4795" y1="-1833.3972" x2="40879.6289" y2="-1833.3972" gradientTransform="matrix(-1.090000e-02 3.670000e-02 -0.5454 -0.2323 -378.6172 -857.8576)">
			<stop  offset="1.685390e-02" style="stop-color:#ED1C24"/>
			<stop  offset="3.785143e-02" style="stop-color:#EF4423"/>
			<stop  offset="6.921472e-02" style="stop-color:#F26522"/>
			<stop  offset="0.1009" style="stop-color:#F47B20"/>
			<stop  offset="0.1327" style="stop-color:#F6891F"/>
			<stop  offset="0.1645" style="stop-color:#F7911E"/>
			<stop  offset="0.1966" style="stop-color:#F7941D"/>
			<stop  offset="0.3708" style="stop-color:#FFC20E"/>
			<stop  offset="0.4009" style="stop-color:#F1C219"/>
			<stop  offset="0.4589" style="stop-color:#D2C52A"/>
			<stop  offset="0.5381" style="stop-color:#98C53D"/>
			<stop  offset="0.5506" style="stop-color:#8DC63F"/>
			<stop  offset="0.7528" style="stop-color:#00AEEF"/>
			<stop  offset="0.8592" style="stop-color:#0090D6"/>
			<stop  offset="0.9533" style="stop-color:#007AC3"/>
			<stop  offset="1" style="stop-color:#0072BC"/>
		</linearGradient>
		<path class="st9" d="M0.2,217.9c142.7-28.7,298.7-16,428.9,41.9c163,72.9,266.7,208.8,314.6,337h2.4
			c-50-135.9-165-282.7-344.3-354.1c-124.3-49.3-268.4-58.4-401.6-32.4L0.2,217.9z"/>
	</g>
	<g>
		
			<linearGradient id="SVGID_11_" gradientUnits="userSpaceOnUse" x1="15108.6641" y1="-1997.9785" x2="41672.8047" y2="-1997.9785" gradientTransform="matrix(-1.300000e-02 3.150000e-02 -0.5137 -0.2709 -300.0445 -912.6257)">
			<stop  offset="1.685390e-02" style="stop-color:#ED1C24"/>
			<stop  offset="3.785143e-02" style="stop-color:#EF4423"/>
			<stop  offset="6.921472e-02" style="stop-color:#F26522"/>
			<stop  offset="0.1009" style="stop-color:#F47B20"/>
			<stop  offset="0.1327" style="stop-color:#F6891F"/>
			<stop  offset="0.1645" style="stop-color:#F7911E"/>
			<stop  offset="0.1966" style="stop-color:#F7941D"/>
			<stop  offset="0.3708" style="stop-color:#FFC20E"/>
			<stop  offset="0.4009" style="stop-color:#F1C219"/>
			<stop  offset="0.4589" style="stop-color:#D2C52A"/>
			<stop  offset="0.5381" style="stop-color:#98C53D"/>
			<stop  offset="0.5506" style="stop-color:#8DC63F"/>
			<stop  offset="0.7528" style="stop-color:#00AEEF"/>
			<stop  offset="0.8592" style="stop-color:#0090D6"/>
			<stop  offset="0.9533" style="stop-color:#007AC3"/>
			<stop  offset="1" style="stop-color:#0072BC"/>
		</linearGradient>
		<path class="st10" d="M0.2,267.5c154.8-51.2,344-43.1,496.6,28.5C641.4,364,738.9,482.4,791,596.8h2.1
			C739,476.1,632.8,349.3,475.9,281.4c-104.5-45.1-225.1-64.2-341-52.3c-46.6,4.8-92,14.6-134.6,28.7V267.5z"/>
	</g>
	<g>
		
			<linearGradient id="SVGID_12_" gradientUnits="userSpaceOnUse" x1="16337.6406" y1="-2181.5208" x2="44293.375" y2="-2181.5208" gradientTransform="matrix(-1.410000e-02 2.620000e-02 -0.4798 -0.3056 -221.3586 -958.685)">
			<stop  offset="1.685390e-02" style="stop-color:#ED1C24"/>
			<stop  offset="3.785143e-02" style="stop-color:#EF4423"/>
			<stop  offset="6.921472e-02" style="stop-color:#F26522"/>
			<stop  offset="0.1009" style="stop-color:#F47B20"/>
			<stop  offset="0.1327" style="stop-color:#F6891F"/>
			<stop  offset="0.1645" style="stop-color:#F7911E"/>
			<stop  offset="0.1966" style="stop-color:#F7941D"/>
			<stop  offset="0.3708" style="stop-color:#FFC20E"/>
			<stop  offset="0.4009" style="stop-color:#F1C219"/>
			<stop  offset="0.4589" style="stop-color:#D2C52A"/>
			<stop  offset="0.5381" style="stop-color:#98C53D"/>
			<stop  offset="0.5506" style="stop-color:#8DC63F"/>
			<stop  offset="0.7528" style="stop-color:#00AEEF"/>
			<stop  offset="0.8592" style="stop-color:#0090D6"/>
			<stop  offset="0.9533" style="stop-color:#007AC3"/>
			<stop  offset="1" style="stop-color:#0072BC"/>
		</linearGradient>
		<path class="st11" d="M0.2,340.7C150.4,255,372,250.2,547.7,329.6c134,60.8,229.9,164.9,286.9,267.2h1.9
			c-59-107.5-161.9-218.2-305.8-279.2c-94.1-39.7-200.7-58.1-303.4-50.7c-83.2,6.1-162,29-227,64.7V340.7z"/>
	</g>
	<g>
		
			<linearGradient id="SVGID_13_" gradientUnits="userSpaceOnUse" x1="16791.1445" y1="-2352.4246" x2="49233.582" y2="-2352.4246" gradientTransform="matrix(-1.440000e-02 2.110000e-02 -0.4441 -0.3365 -144.5716 -996.5836)">
			<stop  offset="1.685390e-02" style="stop-color:#ED1C24"/>
			<stop  offset="3.785143e-02" style="stop-color:#EF4423"/>
			<stop  offset="6.921472e-02" style="stop-color:#F26522"/>
			<stop  offset="0.1009" style="stop-color:#F47B20"/>
			<stop  offset="0.1327" style="stop-color:#F6891F"/>
			<stop  offset="0.1645" style="stop-color:#F7911E"/>
			<stop  offset="0.1966" style="stop-color:#F7941D"/>
			<stop  offset="0.3708" style="stop-color:#FFC20E"/>
			<stop  offset="0.4009" style="stop-color:#F1C219"/>
			<stop  offset="0.4589" style="stop-color:#D2C52A"/>
			<stop  offset="0.5381" style="stop-color:#98C53D"/>
			<stop  offset="0.5506" style="stop-color:#8DC63F"/>
			<stop  offset="0.7528" style="stop-color:#00AEEF"/>
			<stop  offset="0.8592" style="stop-color:#0090D6"/>
			<stop  offset="0.9533" style="stop-color:#007AC3"/>
			<stop  offset="1" style="stop-color:#0072BC"/>
		</linearGradient>
		<path class="st12" d="M0.2,448.9c20.5-23.1,45.9-44.5,75.1-62.7c136-84.4,342.2-92.2,510.3-24.5C694.6,405.8,781,477.8,842.9,554
			v-2.6c-64.5-79.6-156.2-155.2-271.6-199.2c-170.3-64.6-376-52-508.5,34.3C39,402,18,419.6,0.2,438.5V448.9z"/>
	</g>
	<g>
		
			<linearGradient id="SVGID_14_" gradientUnits="userSpaceOnUse" x1="15653.6865" y1="-2559.9216" x2="57902.5625" y2="-2559.9216" gradientTransform="matrix(-1.390000e-02 1.620000e-02 -0.4069 -0.3634 -69.1881 -1026.5057)">
			<stop  offset="1.685390e-02" style="stop-color:#ED1C24"/>
			<stop  offset="3.785143e-02" style="stop-color:#EF4423"/>
			<stop  offset="6.921472e-02" style="stop-color:#F26522"/>
			<stop  offset="0.1009" style="stop-color:#F47B20"/>
			<stop  offset="0.1327" style="stop-color:#F6891F"/>
			<stop  offset="0.1645" style="stop-color:#F7911E"/>
			<stop  offset="0.1966" style="stop-color:#F7941D"/>
			<stop  offset="0.3708" style="stop-color:#FFC20E"/>
			<stop  offset="0.4009" style="stop-color:#F1C219"/>
			<stop  offset="0.4589" style="stop-color:#D2C52A"/>
			<stop  offset="0.5381" style="stop-color:#98C53D"/>
			<stop  offset="0.5506" style="stop-color:#8DC63F"/>
			<stop  offset="0.7528" style="stop-color:#00AEEF"/>
			<stop  offset="0.8592" style="stop-color:#0090D6"/>
			<stop  offset="0.9533" style="stop-color:#007AC3"/>
			<stop  offset="1" style="stop-color:#0072BC"/>
		</linearGradient>
		<path class="st13" d="M11.5,596.8c2.1-8.8,4.8-17.5,8.1-26.2c19.8-50.8,61.9-99.5,118.1-135.6c126.9-81.3,316.1-93.6,475.3-41.5
			c90.7,29.8,168,78.4,229.9,132.4v-2.1c-64.6-56.8-146.5-107.9-242.5-137.6c-160.3-49.6-348.4-33.5-471.9,49
			c-54.6,36.6-94.8,85.2-113.2,135.2c-3.2,8.7-5.7,17.5-7.6,26.3H11.5z"/>
	</g>
	<g>
		
			<linearGradient id="SVGID_15_" gradientUnits="userSpaceOnUse" x1="11574.1641" y1="-2766.4033" x2="73004.1719" y2="-2766.4033" gradientTransform="matrix(-1.250000e-02 1.160000e-02 -0.3687 -0.3864 4.6126 -1049.894)">
			<stop  offset="1.685390e-02" style="stop-color:#ED1C24"/>
			<stop  offset="3.785143e-02" style="stop-color:#EF4423"/>
			<stop  offset="6.921472e-02" style="stop-color:#F26522"/>
			<stop  offset="0.1009" style="stop-color:#F47B20"/>
			<stop  offset="0.1327" style="stop-color:#F6891F"/>
			<stop  offset="0.1645" style="stop-color:#F7911E"/>
			<stop  offset="0.1966" style="stop-color:#F7941D"/>
			<stop  offset="0.3708" style="stop-color:#FFC20E"/>
			<stop  offset="0.4009" style="stop-color:#F1C219"/>
			<stop  offset="0.4589" style="stop-color:#D2C52A"/>
			<stop  offset="0.5381" style="stop-color:#98C53D"/>
			<stop  offset="0.5506" style="stop-color:#8DC63F"/>
			<stop  offset="0.7528" style="stop-color:#00AEEF"/>
			<stop  offset="0.8592" style="stop-color:#0090D6"/>
			<stop  offset="0.9533" style="stop-color:#007AC3"/>
			<stop  offset="1" style="stop-color:#0072BC"/>
		</linearGradient>
		<path class="st14" d="M70.7,596.8C96,556,131.5,518.4,175.8,489.5C300,408.9,477.4,389.7,631,425.9
			c82.4,19.5,152.7,52.2,211.9,90.1v-1.2c-61.9-40.1-136-74.6-223.3-94.1c-154-34.1-330-11.9-450.9,69.7
			c-42.9,29-76.8,66.3-100.7,106.4H70.7z"/>
	</g>
	<g>
		
			<linearGradient id="SVGID_16_" gradientUnits="userSpaceOnUse" x1="-671.1773" y1="-2975.6069" x2="99392.8438" y2="-2975.6069" gradientTransform="matrix(-1.040000e-02 7.500000e-03 -0.3299 -0.4056 75.1956 -1067.0809)">
			<stop  offset="1.685390e-02" style="stop-color:#ED1C24"/>
			<stop  offset="3.785143e-02" style="stop-color:#EF4423"/>
			<stop  offset="6.921472e-02" style="stop-color:#F26522"/>
			<stop  offset="0.1009" style="stop-color:#F47B20"/>
			<stop  offset="0.1327" style="stop-color:#F6891F"/>
			<stop  offset="0.1645" style="stop-color:#F7911E"/>
			<stop  offset="0.1966" style="stop-color:#F7941D"/>
			<stop  offset="0.3708" style="stop-color:#FFC20E"/>
			<stop  offset="0.4009" style="stop-color:#F1C219"/>
			<stop  offset="0.4589" style="stop-color:#D2C52A"/>
			<stop  offset="0.5381" style="stop-color:#98C53D"/>
			<stop  offset="0.5506" style="stop-color:#8DC63F"/>
			<stop  offset="0.7528" style="stop-color:#00AEEF"/>
			<stop  offset="0.8592" style="stop-color:#0090D6"/>
			<stop  offset="0.9533" style="stop-color:#007AC3"/>
			<stop  offset="1" style="stop-color:#0072BC"/>
		</linearGradient>
		<path class="st15" d="M124.2,596.8c20.6-18.9,43.2-36.3,67.7-51.6c127.7-79.6,297.6-106.2,448.3-85.7
			c75.7,10.4,143.5,31,202.7,56.4v-1c-61.9-26.9-133.3-48.6-213.3-58.6c-150.7-18.7-319.1,10.3-443.8,90.6
			c-23.1,14.9-44.5,31.7-63.8,49.9H124.2z"/>
	</g>
	<g>
		
			<linearGradient id="SVGID_17_" gradientUnits="userSpaceOnUse" x1="-26840.5801" y1="-3217.5046" x2="153099.25" y2="-3217.5046" gradientTransform="matrix(-7.700000e-03 3.900000e-03 -0.2909 -0.421 141.7662 -1078.8121)">
			<stop  offset="1.685390e-02" style="stop-color:#ED1C24"/>
			<stop  offset="3.785143e-02" style="stop-color:#EF4423"/>
			<stop  offset="6.921472e-02" style="stop-color:#F26522"/>
			<stop  offset="0.1009" style="stop-color:#F47B20"/>
			<stop  offset="0.1327" style="stop-color:#F6891F"/>
			<stop  offset="0.1645" style="stop-color:#F7911E"/>
			<stop  offset="0.1966" style="stop-color:#F7941D"/>
			<stop  offset="0.3708" style="stop-color:#FFC20E"/>
			<stop  offset="0.4009" style="stop-color:#F1C219"/>
			<stop  offset="0.4589" style="stop-color:#D2C52A"/>
			<stop  offset="0.5381" style="stop-color:#98C53D"/>
			<stop  offset="0.5506" style="stop-color:#8DC63F"/>
			<stop  offset="0.7528" style="stop-color:#00AEEF"/>
			<stop  offset="0.8592" style="stop-color:#0090D6"/>
			<stop  offset="0.9533" style="stop-color:#007AC3"/>
			<stop  offset="1" style="stop-color:#0072BC"/>
		</linearGradient>
		<path class="st16" d="M191.3,596.8C327.2,521.9,492.1,489.7,641,495.1c73.7,2.8,141.4,13.8,201.9,29.1v-0.7
			c-63.2-16.2-134.5-27.8-212.1-30c-147.1-4-308.9,29.3-441.4,103.2H191.3z"/>
	</g>
	<g>
		
			<linearGradient id="SVGID_18_" gradientUnits="userSpaceOnUse" x1="-97779.6094" y1="-3537.311" x2="312993.0313" y2="-3537.311" gradientTransform="matrix(-4.400000e-03 1.000000e-03 -0.252 -0.4328 205.0963 -1085.5216)">
			<stop  offset="1.685390e-02" style="stop-color:#ED1C24"/>
			<stop  offset="3.785143e-02" style="stop-color:#EF4423"/>
			<stop  offset="6.921472e-02" style="stop-color:#F26522"/>
			<stop  offset="0.1009" style="stop-color:#F47B20"/>
			<stop  offset="0.1327" style="stop-color:#F6891F"/>
			<stop  offset="0.1645" style="stop-color:#F7911E"/>
			<stop  offset="0.1966" style="stop-color:#F7941D"/>
			<stop  offset="0.3708" style="stop-color:#FFC20E"/>
			<stop  offset="0.4009" style="stop-color:#F1C219"/>
			<stop  offset="0.4589" style="stop-color:#D2C52A"/>
			<stop  offset="0.5381" style="stop-color:#98C53D"/>
			<stop  offset="0.5506" style="stop-color:#8DC63F"/>
			<stop  offset="0.7528" style="stop-color:#00AEEF"/>
			<stop  offset="0.8592" style="stop-color:#0090D6"/>
			<stop  offset="0.9533" style="stop-color:#007AC3"/>
			<stop  offset="1" style="stop-color:#0072BC"/>
		</linearGradient>
		<path class="st17" d="M312.1,596.8c106.8-35.9,217-58.5,321.2-64.1c75.6-4,146.2-1.3,209.6,5.1v-0.3
			c-66.2-6.7-140.3-9.5-219.7-4.8c-102,6.1-209.1,28.8-312.9,64.1H312.1z"/>
	</g>
	<g>
		
			<linearGradient id="SVGID_19_" gradientUnits="userSpaceOnUse" x1="437.3516" y1="575.6694" x2="2441.1575" y2="575.6694" gradientTransform="matrix(-6.000000e-04 -1.300000e-03 -0.2135 -0.4412 265.1718 -1089.6293)">
			<stop  offset="1.685390e-02" style="stop-color:#ED1C24"/>
			<stop  offset="3.785143e-02" style="stop-color:#EF4423"/>
			<stop  offset="6.921472e-02" style="stop-color:#F26522"/>
			<stop  offset="0.1009" style="stop-color:#F47B20"/>
			<stop  offset="0.1327" style="stop-color:#F6891F"/>
			<stop  offset="0.1645" style="stop-color:#F7911E"/>
			<stop  offset="0.1966" style="stop-color:#F7941D"/>
			<stop  offset="0.3708" style="stop-color:#FFC20E"/>
			<stop  offset="0.4009" style="stop-color:#F1C219"/>
			<stop  offset="0.4589" style="stop-color:#D2C52A"/>
			<stop  offset="0.5381" style="stop-color:#98C53D"/>
			<stop  offset="0.5506" style="stop-color:#8DC63F"/>
			<stop  offset="0.7528" style="stop-color:#00AEEF"/>
			<stop  offset="0.8592" style="stop-color:#0090D6"/>
			<stop  offset="0.9533" style="stop-color:#007AC3"/>
			<stop  offset="1" style="stop-color:#0072BC"/>
		</linearGradient>
		<path class="st18" d="M467.4,596.8c50.9-10.2,100.9-18.5,149.5-24.5c81.5-10.1,157.8-15.5,226-17.8v0.4
			c-127.7,4.2-254.5,18.3-378.8,41.9H467.4z"/>
	</g>
	<g>
		
			<linearGradient id="SVGID_20_" gradientUnits="userSpaceOnUse" x1="-446409.9063" y1="-3494.0364" x2="40761.2813" y2="-3494.0364" gradientTransform="matrix(3.500000e-03 -2.800000e-03 -0.1757 -0.4463 321.139 -1090.1147)">
			<stop  offset="1.685390e-02" style="stop-color:#ED1C24"/>
			<stop  offset="3.785143e-02" style="stop-color:#EF4423"/>
			<stop  offset="6.921472e-02" style="stop-color:#F26522"/>
			<stop  offset="0.1009" style="stop-color:#F47B20"/>
			<stop  offset="0.1327" style="stop-color:#F6891F"/>
			<stop  offset="0.1645" style="stop-color:#F7911E"/>
			<stop  offset="0.1966" style="stop-color:#F7941D"/>
			<stop  offset="0.3708" style="stop-color:#FFC20E"/>
			<stop  offset="0.4009" style="stop-color:#F1C219"/>
			<stop  offset="0.4589" style="stop-color:#D2C52A"/>
			<stop  offset="0.5381" style="stop-color:#98C53D"/>
			<stop  offset="0.5506" style="stop-color:#8DC63F"/>
			<stop  offset="0.7528" style="stop-color:#00AEEF"/>
			<stop  offset="0.8592" style="stop-color:#0090D6"/>
			<stop  offset="0.9533" style="stop-color:#007AC3"/>
			<stop  offset="1" style="stop-color:#0072BC"/>
		</linearGradient>
		<path class="st19" d="M731.4,596.8c39.2-6.6,76.5-12.9,111.5-18.7l0,0.2c-34.4,5.7-71.1,11.9-109.6,18.5H731.4z"/>
	</g>
	<g>
		
			<linearGradient id="SVGID_21_" gradientUnits="userSpaceOnUse" x1="-222493.9531" y1="-3695.1306" x2="28292.9219" y2="-3695.1306" gradientTransform="matrix(7.900000e-03 -3.500000e-03 -0.1388 -0.4484 374.401 -1088.7618)">
			<stop  offset="1.685390e-02" style="stop-color:#ED1C24"/>
			<stop  offset="3.785143e-02" style="stop-color:#EF4423"/>
			<stop  offset="6.921472e-02" style="stop-color:#F26522"/>
			<stop  offset="0.1009" style="stop-color:#F47B20"/>
			<stop  offset="0.1327" style="stop-color:#F6891F"/>
			<stop  offset="0.1645" style="stop-color:#F7911E"/>
			<stop  offset="0.1966" style="stop-color:#F7941D"/>
			<stop  offset="0.3708" style="stop-color:#FFC20E"/>
			<stop  offset="0.4009" style="stop-color:#F1C219"/>
			<stop  offset="0.4589" style="stop-color:#D2C52A"/>
			<stop  offset="0.5381" style="stop-color:#98C53D"/>
			<stop  offset="0.5506" style="stop-color:#8DC63F"/>
			<stop  offset="0.7528" style="stop-color:#00AEEF"/>
			<stop  offset="0.8592" style="stop-color:#0090D6"/>
			<stop  offset="0.9533" style="stop-color:#007AC3"/>
			<stop  offset="1" style="stop-color:#0072BC"/>
		</linearGradient>
		<path class="st20" d="M816.4,596.8c9-2.3,17.8-4.5,26.5-6.7v0.4c-8,2.1-16.2,4.2-24.5,6.3H816.4z"/>
	</g>
</g>
</svg>
